<?xml version="1.0" encoding="UTF-8" standalone="no"?>
<!-- Created with Inkscape (http://www.inkscape.org/) -->

<svg
   width="53.921829mm"
   height="53.921852mm"
   viewBox="0 0 53.921829 53.921852"
   version="1.1"
   id="svg5"
   inkscape:version="1.2 (dc2aedaf03, 2022-05-15)"
   sodipodi:docname="favicon.svg"
   xmlns:inkscape="http://www.inkscape.org/namespaces/inkscape"
   xmlns:sodipodi="http://sodipodi.sourceforge.net/DTD/sodipodi-0.dtd"
   xmlns="http://www.w3.org/2000/svg"
   xmlns:svg="http://www.w3.org/2000/svg">
  <sodipodi:namedview
     id="namedview7"
     pagecolor="#505050"
     bordercolor="#eeeeee"
     borderopacity="1"
     inkscape:showpageshadow="0"
     inkscape:pageopacity="0"
     inkscape:pagecheckerboard="0"
     inkscape:deskcolor="#505050"
     inkscape:document-units="mm"
     showgrid="false"
     inkscape:zoom="1.829812"
     inkscape:cx="201.38681"
     inkscape:cy="497.86534"
     inkscape:window-width="2560"
     inkscape:window-height="1369"
     inkscape:window-x="-8"
     inkscape:window-y="-8"
     inkscape:window-maximized="1"
     inkscape:current-layer="layer1" />
  <defs
     id="defs2">
    <inkscape:path-effect
       effect="fillet_chamfer"
       id="path-effect2351"
       is_visible="true"
       lpeversion="1"
       nodesatellites_param="F,0,0,1,0,5.2916667,0,1 @ F,0,0,1,0,5.2916667,0,1 @ F,0,0,1,0,5.2916667,0,1 @ F,0,0,1,0,5.2916667,0,1"
       unit="px"
       method="auto"
       mode="F"
       radius="20"
       chamfer_steps="1"
       flexible="false"
       use_knot_distance="true"
       apply_no_radius="true"
       apply_with_radius="true"
       only_selected="false"
       hide_knots="false" />
  </defs>
  <g
     inkscape:label="Warstwa 1"
     inkscape:groupmode="layer"
     id="layer1"
     transform="translate(-74.476488,-102.2389)">
    <path
       style="fill:#d5d6db;fill-opacity:1;stroke:#0f0f14;stroke-width:1.4314;stroke-dasharray:none;stroke-opacity:1;paint-order:stroke markers fill"
       id="rect184"
       width="52.490421"
       height="52.490448"
       x="75.192184"
       y="102.9546"
       inkscape:path-effect="#path-effect2351"
       d="m 80.483851,102.9546 h 41.907089 a 5.2916667,5.2916667 45 0 1 5.29167,5.29166 v 41.90712 a 5.2916667,5.2916667 135 0 1 -5.29167,5.29167 H 80.483851 a 5.2916667,5.2916667 45 0 1 -5.291667,-5.29167 v -41.90712 a 5.2916667,5.2916667 135 0 1 5.291667,-5.29166 z"
       sodipodi:type="rect" />
    <g
       id="g699"
       transform="matrix(0.84609825,0,0,0.913014,70.542837,20.567015)">
      <path
         style="fill:#0f0f14;stroke:#000000;stroke-width:0;stroke-opacity:0.0977011;paint-order:stroke markers fill"
         id="path685"
         sodipodi:type="arc"
         sodipodi:cx="21.36915"
         sodipodi:cy="123.30717"
         sodipodi:rx="10.224475"
         sodipodi:ry="10.019985"
         sodipodi:start="0"
         sodipodi:end="6.2830806"
         sodipodi:arc-type="slice"
         d="m 31.593625,123.30717 a 10.224475,10.019985 0 0 1 -10.224207,10.01998 10.224475,10.019985 0 0 1 -10.224743,-10.01946 10.224475,10.019985 0 0 1 10.223672,-10.02051 10.224475,10.019985 0 0 1 10.225278,10.01894 l -10.224475,0.001 z" />
      <path
         style="fill:#0f0f14;stroke:#000000;stroke-width:0;stroke-opacity:0.0977011;paint-order:stroke markers fill"
         id="path687"
         sodipodi:type="arc"
         sodipodi:cx="35.625286"
         sodipodi:cy="116.95368"
         sodipodi:rx="14.00753"
         sodipodi:ry="13.496306"
         sodipodi:start="0"
         sodipodi:end="6.2830806"
         sodipodi:arc-type="slice"
         d="m 49.632816,116.95368 a 14.00753,13.496306 0 0 1 -14.007163,13.49631 14.00753,13.496306 0 0 1 -14.007897,-13.4956 14.00753,13.496306 0 0 1 14.00643,-13.49701 14.00753,13.496306 0 0 1 14.00863,13.49489 l -14.00753,0.001 z" />
      <path
         style="fill:#0f0f14;stroke:#000000;stroke-width:0;stroke-opacity:0.0977011;paint-order:stroke markers fill"
         id="path689"
         sodipodi:type="arc"
         sodipodi:cx="51.143806"
         sodipodi:cy="122.8985"
         sodipodi:rx="10.735698"
         sodipodi:ry="10.480086"
         sodipodi:start="0"
         sodipodi:end="6.2830806"
         sodipodi:arc-type="slice"
         d="M 61.879504,122.8985 A 10.735698,10.480086 0 0 1 51.144087,133.37858 10.735698,10.480086 0 0 1 40.408109,122.89905 10.735698,10.480086 0 0 1 51.142963,112.41841 10.735698,10.480086 0 0 1 61.879504,122.8974 l -10.735698,0.001 z" />
      <rect
         style="fill:#0f0f14;stroke:#000000;stroke-width:0;stroke-opacity:0.0977011;paint-order:stroke markers fill"
         id="rect693"
         width="29.446562"
         height="11.86039"
         x="20.80455"
         y="121.45618" />
    </g>
  </g>
</svg>
